<svg id="Layer_1" data-name="Layer 1" xmlns="http://www.w3.org/2000/svg" xmlns:xlink="http://www.w3.org/1999/xlink" viewBox="0 0 699 699"><defs><style>.cls-1{fill:none;}.cls-2{clip-path:url(#clip-path);}.cls-3{fill:#fff;}</style><clipPath id="clip-path" transform="translate(-190.23 -191.31)"><rect class="cls-1" x="190.23" y="191.31" width="699" height="699"/></clipPath></defs><title>logo-white</title><g class="cls-2"><path class="cls-3" d="M190.23,540.81c0-193,156.47-349.5,349.5-349.5s349.5,156.47,349.5,349.5-156.48,349.5-349.5,349.5-349.5-156.48-349.5-349.5Zm349.5,324.62c179.28,0,324.61-145.34,324.61-324.62S719,216.19,539.73,216.19,215.11,361.53,215.11,540.81,360.45,865.43,539.73,865.43Zm0,0" transform="translate(-190.23 -191.31)"/></g><path class="cls-3" d="M875.25,540.81c0,185.3-150.22,335.52-335.52,335.52S204.21,726.11,204.21,540.81,354.43,205.29,539.73,205.29,875.25,355.51,875.25,540.81Zm0,0" transform="translate(-190.23 -191.31)"/><path d="M486,547.3l-1.21-143.64H533V678.77H492.86L400.34,534.32q-7.71-11.77-16.79-26.62t-17.29-27.35q1.22,13,2.27,27.18t1,27.19l1.21,143.65H322.44V402.85h37.73l95.36,142.83q8.12,11.76,16.48,24.91T488.4,596q-.81-13-1.63-26.22T486,547.3Zm79.53-143.64H757l-6.09,36.52H682.76V678.37H634.88V440.18H565.49Zm0,0" transform="translate(-190.23 -191.31)"/></svg>